<?xml version='1.0' encoding='utf-8'?>
<svg xmlns="http://www.w3.org/2000/svg" enable-background="new 0 0 4000 4000" version="1.1" viewBox="0 0 4e3 4e3"> <style type="text/css">.st0{opacity:0.5;fill:#ADADAD;enable-background:new ;} .st1{fill:#E8373E;} .st2{fill:#FC8C95;} .st3{fill:#F05E64;} .st4{fill:#CA0824;} .st5{fill:#A51721;} .st6{fill:#C90526;} .st7{fill:#D52F2F;} .st8{fill:#CB0626;} .st9{fill:#C80725;} .st10{fill:#CA0629;} .st11{fill:#A51824;} .st12{fill:#D53131;} .st13{fill:#A41420;} .st14{fill:#CA0624;} .st15{fill:#C90726;} .st16{fill:#C2242A;} .st17{fill:#FCDEE6;} .st18{fill:#ECEAEA;} .st19{fill:#FDFDFD;} .st20{fill:#FCFCFC;} .st21{fill:#151515;} .st22{fill:#FCFBFB;} .st23{fill:#F4F4F3;} .st24{fill:#860E17;} .st25{fill:#EF3E47;} .st26{fill:#FCFDFD;}</style> <path class="st0" d="m3113 3451.7s-20.6-3.3-44.7-7-158.5 18.8-279.7 48.2c-121.2 29.3-703.6 17.8-896.7 16.3s-699-5.3-813.5-16.3c-114.5-11.1-172-30.6-172-30.6-32-19.4-65.7 7.7-91.5 25.4-20.4 12.7-38.8 39.5-27.3 63.6 22.2 36.2 61.5 58.3 101.4 70.3 201.4 62.4 414.7 64.1 623.7 61.3 138.9 2.5 276.9-15 415-27.5 158.7-12.1 315.6 21.8 474 23.3 86.1-4.1 172.3 7.5 258.3-3.2 142.9-2.5 285.4-25.8 421.2-70.3 36.8-21.9 91-38.8 97.8-87.2-5.2-34.2-40.3-49.3-66-66.3zm-893 186.1c-0.3 0-0.6 0-0.8-0.1h0.4c0.1 0.1 0.2 0.1 0.4 0.1z"/> <path class="st1" d="m3247 2343.8c-9.3-123.3-80.5-235.8-174.3-313.4-10.3-5.3-22.3-15.5-34.2-17.2-20.3-19.6-382.8-73-461.9-86.1-79.1-13.2-432.6-24.3-637.9-23.9-163.5 0.4-931.3 106.2-931.3 106.2-53.3 4.6-89.9 45.8-128.7 77.7-78.7 80.9-109.7 196.8-111.8 307.2-4.9 214.8 22.2 428.6 34.2 642.8 1.8 146 16.2 303.9 105.5 425.1 65.3 89.6 158.8 160.3 268.4 184.6 176 39.6 359.3 31.1 536.6 4 143.3-24.5 288.9-11.3 433.3-15.1 110.1-3.6 217.3 25.6 326.5 32.2 119.1 10.9 240 4.5 356.9-21.2 63-13.3 121-43.4 172.3-81.9 45.5-28.7 83.2-68.3 112.5-113.2 68.4-112.3 90.9-246.5 94.6-376.3-0.5-59.7 14.7-117.9 16.3-177.4 11-184.4 35.5-369 23-554.1z"/> <path class="st2" d="m3209.7 2394.3c0.8-127.9-58.3-254.4-162.7-329.8-55.7-49.5-991.5-112.5-1155.1-117.5-163.7-5-912.5 117.1-912.5 117.1-56.4 36.3-109.5 82.9-136.9 145.5-46.8 100.7-43.3 214.6-39.8 322.9 7.7 145.4 21.4 290.2 34.9 435.1 8.8 116.5 0 236.9 38.3 349.2 34.6 86.5 81.2 174.1 161.8 226.2 68.4 40.7 142.7 75.6 223.1 83.5 149 16.8 300.2 10.1 448.5-11.3 72-12.5 145.1-14.7 218-15.4 141.6 0.2 284.4-5.6 424.5 18.6 134.1 20.3 271.7 24.6 405.9 2.5 97.4-13.5 186.9-62.4 262-124.4 67.9-55.6 101.8-140.5 123.2-223.3 21.7-83.8 21.8-170.7 24.8-256.5 15-207.5 43.9-414.3 42-622.4z"/> <path class="st3" d="m3145.1 2443.5c-3.4-80.8-19.6-164-63.9-232.9-15.1-24.9-40.6-39.9-66.8-50.6-618.4-143.2-1284.7-158.3-2012.2-9.7-29.6 26.5-65.7 48.3-83.5 85.2-33.1 55.1-51.7 117.7-55 181.9-13.7 210.4 10.3 420.9 35.8 629.4 9.6 108.6-7.7 223.7 39.5 325.7 21 51 61.2 91.8 108.1 120 85.1 49.6 180 79.4 276 99.8 103.4 22.9 207.8-5.9 310.9-15.7 251.6-24.6 506.4-29.4 757.6 1.9 81.3 9 162.7 33.1 244.9 17.4 142.3-28.2 292.4-67.9 399.1-172.3 75.4-86.6 84.9-207.8 81.2-317.6-5.2-112.8 14.3-224.5 21.1-336.7 8.6-108.3 11.9-217.2 7.2-325.8z"/> <path class="st4" d="m921.1 2553.9c27.5-11.7 67.7-7.2 84 20.7 16.1 37.8-40.8 79.1-70.8 49.3-24-13.1-43.5-52.8-13.2-70z"/> <path class="st5" d="m2099.1 2803.2c24.2-8.9 51.2-8.8 76.2-2.6 30.9 9.2 46.3 50.5 29.5 78-23.5 46.9-98.1 52.4-128 9-22.2-26.3-8-71.4 22.3-84.4z"/> <path class="st6" d="m3046.4 2833c35.6-19.7 69.1 23 55.6 56.6-6.6 41-60.5 68.3-92.8 36.7-21.7-34.9 3.4-78.2 37.2-93.3z"/> <path class="st7" d="m1821.9 2843.5c41.6-1.3 83.7 42.1 65.8 84.2-13.7 40.1-75.9 41.1-97.9 8.2-23-30.9-12.5-89.6 32.1-92.4z"/> <path class="st8" d="m930.9 2861.9c56.5-27.8 115.2 67 65.6 104.4-57.6 31.9-132.5-71-65.6-104.4z"/> <path class="st9" d="m2925.9 3047.9c16.2-10.3 31.9-22.2 50.4-28.4 23.8-7.9 57.1 8.8 55.2 36.7-5.2 50.3-90.4 79.8-111.1 23.4 1.6-10.6 3.5-21.2 5.5-31.7z"/> <path class="st10" d="m930 3105.4c33.1-18.2 94.4 10 81.4 51.8-27.3 54.6-127.3-5.4-81.4-51.8z"/> <path class="st11" d="m1960.2 3110.1c29.3-21.9 71.9 0 76.1 34.7 4.9 32.5-8.4 83.7-49.5 82.4-57.5 1.1-73.7-90.3-26.6-117.1z"/> <path class="st12" d="m2157 3287.2c39.1-12.6 82.6 5 110.7 32.9 22.4 24.4 8.4 64.7-20.8 76.2-42.6 31.4-101.2-0.8-118.8-44.9-9.6-24.4 2.9-56.4 28.9-64.2z"/> <path class="st13" d="m1752.5 3308c23.6-8.8 53.9 2.3 63.4 26.4 14.8 38.8-21.4 93.3-65.7 79.4-50.3-12.8-49.3-94.1 2.3-105.8z"/> <path class="st14" d="m1090.3 3317.3c39.5-12.4 95.7 20 89.2 65.1-8.1 40.6-65.5 42.2-88.7 14.4-26.2-17.2-36.7-68.3-0.5-79.5z"/> <path class="st15" d="m2989.3 2582.1c24.7-15.3 54.6-33.5 84.6-21.1 26.5 10.2 20.1 46.3 4.5 63.6-20.6 32.3-71.1 26.4-90.1-4.4 0.3-12.8 0.6-25.5 1-38.1z"/> <path class="st16" d="m979.3 2064.1c12.6-8.7 25.1-17.4 37.7-26.1 19.1 61.3 39.2 122.8 48 186.7 12.6 82.2 11.1 165.8 25.3 247.8 8.1 72.6 11.7 145.7 19.5 218.2 17.6 173.7 51.5 345.4 90.7 515.5 22.1 92 56.1 187 127.9 252.3 34.8 32.3 89 46 132.4 22.7 38.2-14.9 57.7-54.1 69.8-90.7 85.1-265 52.7-554.4 154.7-815.1 30.6-86.9 84.4-175.8 173.5-211.8 102.8-46.4 226.3-40.6 326.8 8.8 75.5 37.4 117.1 115.1 145.8 190.6 72 196.5 75.6 408.4 118.8 611.3 12.3 81.8 21.3 166.3 58.2 241.7 18.5 34.5 49.8 68.3 91.6 70.8 55.9 4.1 106.8-29.6 141.9-70.4 48.5-61.3 64.4-139.4 91.2-211.1 55.6-197.1 88.3-400.5 99.3-605.1 17.8-188.9 14.4-384.2 83.6-563.8 10.2 9.4 20.6 18.9 31.2 28.1-11.1 31.7-22.7 63.4-32.5 95.5-31.3 138.2-17 281.4-25.2 422.1-0.4 12.7-0.7 25.3-1 38.1-10 144-27.9 287.5-62.4 427.8-2 10.5-3.9 21.1-5.4 31.7-23.1 31.5-30.1 70.6-41.6 107.1-15 48.9-30.5 97.9-54.4 143.3-28.5 52.7-42.8 116.8-93.5 154.1-53 41.1-119 89.6-189.7 65.9-63.6-30.6-87.4-103.5-113-164.1-80-199-86.3-415.6-122.6-624.5-17.4-84.4-31.4-173.6-84.6-244.4-41.1-59.3-109.6-109.5-184.9-103.2-65.9 3.5-124.5 41.8-171 86.2-58.2 56-78.6 136.9-107 209.7-35.6 92.4-63.2 188.1-76.1 286.3-7.6 64-24.1 126.5-33.7 190.1-13.1 80.2-34.6 159.4-68.7 233.3-34 72.2-100.2 124.9-172.9 154.9-27.2 10.7-56.8-1.2-78.4-18.2-34.9-27.3-65.2-61.1-86.7-100-80-156.1-127.6-326-168.8-495.7-31.2-163.7-44.5-330.2-50.3-496.5-3.6-104.6-0.9-210.2-20.1-313.6-6.8-29.1-15-57.8-23.4-86.3z"/> <path class="st17" d="m865.1 539.9c108.2-114 254.9-191.3 410-216.9 214.4-25.3 429.6 24.1 632.3 91.1 52.7 16.5 103.3 42.8 159 48 49-4 93.5-27.5 138.5-45.7 80.3-32 160.7-67.4 247-80 180.9-30.2 374.2-26.3 543.7 50.2 61.5 25.4 116.8 67.5 155.3 122.1 43 60.9 92 119.7 114.6 192 75.9 188.6 66.5 399 27.9 595-18.7 83.7-40.1 167.1-69.6 247.7-31.6 63.7-51.9 132.1-81.1 196.8-40.8 91-78.7 183.1-117.1 275.1-2.5 5.2-7.4 15.7-9.9 21-69.1 179.6-65.8 374.9-83.6 563.8-11 204.6-43.7 408-99.3 605.1-26.8 71.7-42.7 149.8-91.2 211.1-35.1 40.8-86 74.5-141.9 70.4-41.7-2.5-73.1-36.3-91.6-70.8-37-75.4-46-159.9-58.2-241.7-43.2-202.9-46.8-414.8-118.8-611.3-28.7-75.5-70.3-153.2-145.8-190.6-100.6-49.4-224-55.2-326.8-8.8-89.1 36-142.9 124.9-173.5 211.8-102 260.8-69.5 550.1-154.7 815.1-12.2 36.6-31.6 75.7-69.8 90.7-43.4 23.2-97.6 9.6-132.4-22.7-71.8-65.3-105.8-160.3-127.9-252.3-39.2-170.1-73.1-341.8-90.7-515.5-7.8-72.6-11.4-145.7-19.5-218.2-14.2-82-12.8-165.6-25.3-247.8-8.8-63.9-28.9-125.4-48-186.7-3.2-9.7-6.4-19.2-9.8-28.6-32.7-79.7-65-159.6-98.8-238.8-39.9-70.8-62.5-149.1-92.1-224.3-73.9-216.2-122.7-448-88.5-676.8 19-118 56.2-238.6 137.6-329.5z"/> <path class="st18" d="m1171.9 391.9c131.2-57.5 279.7-57.9 418.4-31.8 70.8 13.4 142.8 26.5 210 53.4l-17.1 4c46.9 34.3 106 45.1 153.5 78.5 80.1 51.6 170.8 109.7 270.5 93.3 78.9-9.7 130.6-76.4 199.6-108.6 97.2-43.2 206.5-66.1 312.5-46.9 63.3 14.5 128.5 36.8 174.7 84.7 99.2 88.4 148.9 222.1 156 352.6 5.8 135.2 4.7 272.4-28.4 404.4-30.6 110.5-58.3 222.3-105.8 327-51.7 133-109.9 265-134.2 406.6-44.7 248-12.8 500.9-34.7 750.7-9.6 132-21.3 265.4-62.1 392.1-24.8 76.5-36.3 162.7-91.5 224.9-80.5-99.8-103.6-234-101.6-359.1 1.2-141.1 6.5-288.9-53.4-420.3-38.2-80.5-71-164.3-119-239.6-40.4-65.2-106.6-110.8-177.7-136.6-109.9-28.9-231.1-28.6-334.8 21.8-76.4 37-153.1 82.2-205.1 151-89 123-106.1 278.7-120.4 425.3-3.2 75.8-16.3 151.1-14.8 227.1-0.5 79.2 0.4 158.4 0 237.5-1.9 37.1-0.8 78.2-24.1 109.4-14.3 20.4-48.1 24.8-63.7 3.8-53-54.1-79.4-126.9-109.3-194.9-49.5-120.2-62.6-251.1-105.3-373.1-12.8-28.1-8-59.5-11.6-89.3-19.7-184.2-17.8-371.7-60-553-23.6-65.9-39.5-134.2-61.2-200.7-52.7-136-101.3-273.5-156.2-408.7-74.1-213.1-118.4-440.9-95.5-667 6.7-86.5 30.9-171.5 66.3-250.5 28-63.7 81-110.2 129.4-158 53.5-54.8 128.1-79.7 196.6-110z"/> <path class="st19" d="m2419.4 383.1c189-49.8 400.8-51.5 577.5 40.6 89.8 41.7 149.3 127.1 193.3 212.7 83.7 151.8 94.9 331.8 78.3 501.1-13.2 100.7-29.6 201.9-65.2 297.5-45.2 161.9-113.3 316-170.6 473.7-69 146.9-103.9 307.4-121.8 468-21.2 173-11.1 348.6-42.1 520.5-13.5 70.9-21.2 143.4-44.8 212-30.3 103.3-50.1 214.2-116.4 302.2-23.2 32.1-63.8 55.9-104.1 46.8-38.3-11.6-61.9-47.1-75.7-82.5-62.4-148-60.7-311.9-95.7-466.6-21.9-177.6-52.1-364.9-161.4-512.1-144.5-135.6-390.3-126.3-537.6 0.5-73 72.3-97 176.3-118 273.3-20 88.2-36 177.3-50.8 266.5-15.4 129.7-11.3 262.6-48.3 389.2-14 53.8-36.8 113.4-92.2 136.3-45.6 5.6-81.1-32.7-102.1-68.5-28.1-51.8-59.5-102.7-73.6-160.7-35.7-133-64.8-268.2-84.2-404.5 42.7 122 55.8 253 105.3 373.1 29.9 68 56.3 140.8 109.3 194.9 15.6 21.1 49.3 16.6 63.7-3.8 23.3-31.2 22.2-72.3 24.1-109.4 0.4-79.1-0.5-158.3 0-237.5-1.5-76 11.7-151.3 14.8-227.1 14.3-146.7 31.4-302.3 120.4-425.3 52-68.8 128.7-114 205.1-151 103.7-50.3 225-50.6 334.8-21.8 71.1 25.8 137.3 71.4 177.7 136.6 48 75.4 80.8 159.1 119 239.6 59.9 131.4 54.6 279.2 53.4 420.3-2.1 125.1 21.1 259.3 101.6 359.1 55.2-62.2 66.7-148.3 91.5-224.9 40.8-126.7 52.5-260.1 62.1-392.1 22-249.8-10-502.7 34.7-750.7 24.3-141.6 82.5-273.6 134.2-406.6 47.5-104.7 75.3-216.6 105.8-327 33.1-131.9 34.2-269.2 28.4-404.4-7.1-130.5-56.9-264.2-156-352.6-46.3-48-111.4-70.2-174.7-84.7-106-19.2-215.3 3.7-312.5 46.9-68.9 32.1-120.6 98.9-199.6 108.6-99.7 16.4-190.4-41.6-270.5-93.3-47.5-33.4-106.6-44.2-153.5-78.5l17.1-4c78.2 23.7 155.1 52 233.3 75.8 26.3 7.6 54.3 16 81.7 8.5 104.7-29.5 200.2-84 304.3-114.7z"/> <path class="st20" d="m2685.1 461.1c66.7 11.6 126.7 45.5 181.1 84.5 61 43.5 103.5 109.7 123.7 181.4 18.6 53.5 41.2 119.2 4.3 170.1-15.9 30.6-61.9 36-85 11.2-31.1-23.9-31.6-65.8-34.4-101.4-2.7-49.4-19.9-96.6-38.5-142-42.5-73.6-108.1-130.8-151.2-203.8z"/> <path class="st17" d="m2825.6 397.7c67.5 7.4 131.4 35.6 190.4 68.5 111.2 74.4 184.7 195.8 214.9 324.8 13.4 82.6 21.2 179.4-39 246.6-14.8 25.1-55.9 37-73.2 8.4-18.4-53.3-0.7-110.9-7.9-165.9-9.5-113.4-30.9-235.1-107.9-323.8-28.4-33.7-51.1-73.4-88.3-98.6-29.2-20.9-63.8-33.9-89-60z"/> <path class="st21" d="m2457.8 982.8c-43.3-10.9-94.3-6.3-128.6 25-41.1 34-58.1 87.8-66.1 138.7-6.8 64.4 2.9 133.5 39.7 188.1 25.6 38.5 69.8 65.8 117 63.1 63.7 2.6 112.6-51.2 132.8-106.8 24.1-70.9 25-151.1-3.4-220.9-15.9-40.5-49.3-74.6-91.4-87.2z"/> <path class="st22" d="m2454 1026.9c-23-8.8-48.8-3.3-71 5.7-52.9 28.3-51.7 115.4-2.5 146.8 33.5 16.3 81.8 19.6 106.2-13.7 30.2-42.7 20.1-118.8-32.7-138.8z"/> <path class="st23" d="m2486.7 1209.5c-27.1-24.2-68.8 13.9-40.8 40.4 26.4 32.6 71-14.1 40.8-40.4z"/> <path class="st21" d="m1473.6 982.8c43.3-10.9 94.3-6.3 128.6 25 41.1 34 58.1 87.8 66.1 138.7 6.8 64.4-2.9 133.5-39.7 188.1-25.6 38.5-69.8 65.8-117 63.1-63.7 2.6-112.6-51.2-132.8-106.8-24.1-70.9-25-151.1 3.4-220.9 15.8-40.5 49.3-74.6 91.4-87.2z"/> <path class="st22" d="m1477.4 1026.9c23-8.8 48.8-3.3 71 5.7 52.9 28.3 51.7 115.4 2.5 146.8-33.5 16.3-81.8 19.6-106.2-13.7-30.2-42.7-20.2-118.8 32.7-138.8z"/> <path class="st23" d="m1444.6 1209.5c27.1-24.2 68.8 13.9 40.8 40.4-26.3 32.6-70.9-14.1-40.8-40.4z"/> <path class="st24" d="m1745.1 1693.8c48.1-83.3 136.1-150.8 235.2-151.5 56.3 0 115.9 3.6 165.1 33.7 139.8 71.7 222.8 247.2 178.4 399.7-12.3-48-36-94.5-76.3-124.7-83.5-66.8-187.6-117.1-296.7-112.4-96.4 0.7-187.6 64.5-225.8 152.2-14.7 31.8-18.4 67-25.1 101.1-0.4 2.3-1.2 6.7-1.7 8.9l-0.9 4.7c-33.9-104.6-5.7-219 47.8-311.7z"/> <path class="st25" d="m2247.5 1851c-83.5-66.8-187.6-117.1-296.7-112.4-96.4 0.7-187.6 64.5-225.8 152.2-14.7 31.8-18.4 67-25.1 101.1-0.4 2.3-1.2 6.7-1.7 8.9 8.9 34.2 9.6 82.3 44.7 100.7 32.4-2.9 56.2-30.6 80-49.8 18.8-15.1 32.9-35.2 51.8-50.2 23.3-18.5 53.6-27.8 80.7-38.2 30.1-11.5 61.2-20.2 94.2-14.9 66.5 10.8 128.4 38.9 189.8 65.4 23.7 7.2 50.3 22.2 75.2 10.7 4.9-15.7 8.7-32.1 9.2-48.7-12.2-48.1-36-94.6-76.3-124.8z"/> <path class="st26" d="m1939.5 1560.9c61.8-2.4 121.9 14.1 182.4 24.6-12.1 32.7-29.1 63.2-45.1 94-40.7 1.7-81.5 1.7-122.1 0.2-5.4-39.5-10.2-79.2-15.2-118.8z"/> <path class="st21" d="m2445.9 845.5c3.2-17.3 17-30.2 29.4-41.6 28.2-10.9 44.6 21.7 63.8 36.5 61 68 134.2 127.9 223.3 154 1.4 13.3 9.7 27.9 3 40.7-6 19.8-29.7 7.3-42.9 4.9-24.1-7.2-48.4-14.3-71.4-24.6-63.6-36.7-126.8-75.5-180.6-125.9-11-12.7-23.3-26.6-24.6-44z"/> <path class="st21" d="m1442.2 799.7c29.3-13.4 67.2 29.1 48.4 56.6-33.9 54.3-90.9 87.2-140.5 125.4-44.9 26.4-92.9 51.1-144.5 60.7-23.5 3.4-29.3-38.3-10.4-46.8 62.4-34.3 120.5-76 172.9-124.2 25-23.5 44.3-53.8 74.1-71.7z"/> </svg>